<?xml version="1.0"?>
<!--Icons from directory ""-->
<svg xmlns="http://www.w3.org/2000/svg" width="32" height="288" viewBox="0 0 32 288"><svg xmlns:xlink="http://www.w3.org/1999/xlink" id="1" style="enable-background:new 0 0 366.736 366.736" xml:space="preserve" height="32" viewBox="0 0 366.736 366.736" width="32" version="1.1" y="0" x="0px">	<path d="m338.11 75.789h-77.312v-13.834c0-16.314-13.271-29.587-29.586-29.587h-95.688c-16.313 0-29.586 13.272-29.586 29.587v13.834h-77.303c-15.785 0-28.627 12.841-28.627 28.621v201.33c0 15.784 12.842 28.626 28.627 28.626h309.48c15.785 0 28.627-12.842 28.627-28.626v-201.33c0-15.779-12.84-28.621-28.63-28.621zm-207.17-13.834c0-2.529 2.058-4.587 4.586-4.587h95.688c2.528 0 4.586 2.058 4.586 4.587v13.834h-104.86v-13.834zm-102.31 38.835h309.48c2 0 3.627 1.626 3.627 3.625v65.598c-38.738 14.37-97.169 22.858-158.47 22.858-61.17 0-119.52-8.459-158.26-22.781v-65.675c-0.009-2 1.618-3.63 3.618-3.63zm309.48 208.58h-309.48c-2 0-3.627-1.626-3.627-3.626v-109.16c35.458 11.697 82.077 19.008 132.88 20.84-0.003 0.145-0.021 0.285-0.021 0.432v5.513c0 10.335 8.408 18.743 18.744 18.743h13.527c10.336 0 18.744-8.408 18.744-18.743v-5.513c0-0.147-0.02-0.291-0.021-0.438 50.837-1.848 97.449-9.18 132.88-20.9v109.23c0.01 2-1.62 3.63-3.62 3.63z" fill="#fff"/></svg><svg width="32" viewBox="0 0 32 32" height="32" id="2" y="32"/><svg xmlns:xlink="http://www.w3.org/1999/xlink" id="3" style="enable-background:new 0 0 25.143 25.143" xml:space="preserve" height="32" width="32" version="1.1" y="64" x="0px" viewBox="0 0 25.143 25.143">	<g fill="#fff">		<path d="m18.313 21.852c0.188 0.03 0.38-0.016 0.534-0.129 0.152-0.11 0.258-0.28 0.286-0.469l0.169-1.123c0.034-0.226 0.175-0.418 0.379-0.521l1.017-0.508c0.172-0.087 0.301-0.236 0.359-0.417 0.06-0.183 0.041-0.379-0.045-0.549l-0.524-1.013c-0.103-0.198-0.103-0.439 0-0.639l0.524-1.012c0.086-0.17 0.104-0.366 0.045-0.549-0.059-0.182-0.188-0.33-0.359-0.417l-1.017-0.508c-0.204-0.103-0.345-0.295-0.379-0.521l-0.169-1.123c-0.028-0.189-0.134-0.358-0.286-0.468-0.154-0.114-0.346-0.16-0.534-0.129l-1.125 0.188c-0.223 0.037-0.449-0.037-0.609-0.198l-0.799-0.812c-0.135-0.135-0.316-0.211-0.508-0.211-0.189 0-0.374 0.077-0.508 0.211l-0.799 0.812c-0.159 0.162-0.386 0.235-0.609 0.198l-1.123-0.185c-0.188-0.031-0.38 0.015-0.535 0.129-0.153 0.11-0.258 0.279-0.286 0.468l-0.168 1.123c-0.035 0.226-0.175 0.418-0.379 0.521l-1.018 0.508c-0.169 0.087-0.3 0.235-0.358 0.417-0.059 0.183-0.042 0.379 0.044 0.549l0.524 1.012c0.104 0.199 0.104 0.44 0 0.639l-0.524 1.013c-0.086 0.17-0.103 0.366-0.044 0.549 0.059 0.181 0.188 0.33 0.358 0.417l1.018 0.508c0.204 0.103 0.344 0.295 0.379 0.521l0.168 1.123c0.028 0.188 0.133 0.358 0.286 0.469 0.154 0.113 0.346 0.159 0.535 0.129l1.123-0.185c0.223-0.039 0.45 0.036 0.609 0.197l0.799 0.81c0.135 0.138 0.318 0.214 0.508 0.214 0.191 0 0.374-0.076 0.508-0.214l0.799-0.81c0.16-0.161 0.387-0.236 0.609-0.197l1.125 0.182zm-3.042-0.82c-2.39 0-4.333-1.943-4.333-4.332s1.944-4.334 4.333-4.334c2.39 0 4.333 1.946 4.333 4.334s-1.942 4.332-4.333 4.332z"/>		<path d="m15.272 12.991c-2.041 0-3.703 1.66-3.703 3.702s1.663 3.702 3.703 3.702c2.043 0 3.703-1.66 3.703-3.702s-1.66-3.702-3.703-3.702z"/>		<path d="m21.725 22.663l-2.015-2.016-0.102 0.68c-0.048 0.313-0.222 0.602-0.479 0.787-0.255 0.186-0.574 0.265-0.892 0.213l-1.126-0.184c-0.093-0.006-0.149 0.02-0.19 0.062l-0.192 0.193 2.632 2.631c0.102 0.102 0.249 0.138 0.385 0.097 0.136-0.043 0.236-0.156 0.264-0.297l0.237-1.277 1.281-0.24c0.14-0.026 0.253-0.127 0.294-0.264 0.042-0.137 0.004-0.286-0.097-0.385z"/>		<path d="m13.469 22.138l-1.16 0.189c-0.325 0.05-0.64-0.028-0.896-0.216-0.255-0.184-0.429-0.472-0.477-0.787l-0.102-0.677-2.014 2.016c-0.1 0.1-0.137 0.248-0.096 0.384 0.043 0.137 0.157 0.236 0.295 0.264l1.28 0.239 0.24 1.279c0.026 0.141 0.127 0.254 0.263 0.297 0.135 0.041 0.283 0.005 0.383-0.096l2.631-2.632-0.192-0.194c-0.042-0.043-0.098-0.066-0.155-0.066z"/>		<path d="m16.42 4.217h-9.435c-0.34 0-0.615 0.275-0.615 0.615-0.001 0.342 0.274 0.616 0.615 0.616h9.435c0.339 0 0.615-0.274 0.615-0.614s-0.277-0.617-0.615-0.617z"/>		<path d="m16.42 7.371h-9.435c-0.34 0-0.615 0.275-0.615 0.613-0.001 0.34 0.274 0.616 0.615 0.616h9.435c0.339 0 0.615-0.274 0.615-0.615 0-0.339-0.277-0.614-0.615-0.614z"/>		<path d="m9.872 20.216l-0.465-0.232c-0.119-0.06-0.227-0.137-0.327-0.223h-3.972c-0.272 0-0.493-0.222-0.493-0.492v-17.465c0-0.273 0.221-0.494 0.493-0.494h13.218c0.271 0 0.493 0.221 0.493 0.494v9.007c0.22 0.052 0.43 0.148 0.614 0.285 0.36 0.257 0.609 0.668 0.676 1.116l0.02-10.407c0.002-0.995-0.808-1.805-1.803-1.805h-13.218c-0.995 0-1.805 0.811-1.805 1.805v17.466c0 0.996 0.811 1.806 1.805 1.806h3.905l0.859-0.861z"/>	</g></svg><svg width="32" viewBox="0 0 32 32" height="32" id="4" y="96"/><svg xmlns:xlink="http://www.w3.org/1999/xlink" id="5" style="enable-background:new 0 0 30.504 30.504" xml:space="preserve" height="32" viewBox="0 0 30.504 30.504" width="32" version="1.1" y="128" x="0px">	<g fill="#fff">		<path d="m18.502 22.654c-0.814-0.546-7.785-5.294-9.664-8.617l-0.103-0.183-0.212-0.008c-1.618-0.066-2.876 0.87-3.415 1.354-0.22-0.223-0.444-0.452-0.673-0.688l-0.273-0.28-0.271 0.282c-1.061 1.101-1.53 2.125-1.396 3.048 0.109 0.749 0.621 1.401 1.481 1.888 0.155 0.088 1.95 1.309 3.901 2.867-0.337 0.344-1.562 1.137-2.006 1.453-0.499 0.354-2.578 2.241-2.578 2.241l1.343 0.317 0.465 0.908s0.638-1.562 1.338-2.333 1.923-1.387 1.923-1.387-0.661 0.944-1.135 1.86c-0.473 0.916-0.594 2.504-0.594 2.504l0.821-0.26 0.566 1.234s0.151-1.744 0.499-2.88c0.281-0.919 0.97-1.79 1.226-2.095 2.474 2.178 5.059 4.808 5.576 5.339 0.312 0.358 0.716 0.622 1.242 0.739 0.188 0.041 0.379 0.061 0.565 0.061 1.07 0 2.086-0.667 2.74-1.835 0.764-1.359 0.979-3.449-0.347-4.822-0.363-0.379-0.707-0.594-1.019-0.707zm-10.49-1.197c-1.79-1.408-3.423-2.529-3.661-2.664-0.659-0.373-1.031-0.824-1.106-1.34-0.088-0.606 0.224-1.32 0.928-2.126 1.751 1.792 3.248 3.214 4.519 4.345-0.575 0.933-0.676 1.434-0.68 1.785zm1.112-2.416c-1.009-0.897-2.164-1.984-3.48-3.302 0.447-0.391 1.43-1.11 2.647-1.139 0.636 1.043 1.69 2.188 2.878 3.296-0.618 0.063-1.39 0.333-2.045 1.145zm0.769 3.963c0.064-0.484 0.214-1.151 0.552-1.838 2.226 1.813 3.49 2.476 4.043 2.709-0.086 0.638-0.231 2.108 0.021 3.452-1.195-1.182-2.952-2.88-4.616-4.323zm9.319 4.812c-0.471 0.839-1.37 1.65-2.483 1.404-1.911-0.422-1.692-4.135-1.446-5.53l0.062-0.353-0.351-0.082c-0.015-0.004-1.204-0.338-4.142-2.737 0.552-0.642 1.436-0.929 2.108-1.056 1.659 1.377 3.311 2.567 4.298 3.256-0.03 0.015-0.058 0.029-0.083 0.045-1.138 0.646-1.613 2.515-1.366 3.41 0.29 1.053 0.993 1.729 1.733 1.715 0.316-0.012 1.086-0.19 1.367-1.596l0.044-0.219-0.169-0.143c-1.068-0.909-1.646-1.446-1.922-1.715 0.176-0.342 0.408-0.639 0.687-0.797 0.423-0.238 0.904-0.082 1.433 0.467 1.055 1.098 0.859 2.808 0.23 3.931zm-1.096-1.458c-0.132 0.479-0.353 0.767-0.604 0.774h-0.012c-0.314 0-0.755-0.401-0.964-1.159-0.067-0.242-0.048-0.603 0.042-0.979 0.313 0.293 0.802 0.735 1.538 1.364z"/>		<path d="m5.959 8.611l-1.196 3.831s4.888 0.475 8.958 1.744c4.072 1.272 8.361 3.663 8.361 3.663l1.216-3.899s-3.653-3.682-8.004-5.04c-4.349-1.357-9.335-0.299-9.335-0.299z"/>		<path d="m30.504 14.008l-1.423-1.493 0.14-0.453s1.254-2.306-1.904-1.88c-0.164 0.032-0.262 0.085-0.317 0.151l-9.397-9.851-17.603 3.885 4.841 4.324 0.26-0.833s5.561-1.179 10.41 0.334c4.85 1.515 8.924 5.62 8.924 5.62l-0.453 1.453 3.636-0.702c-0.606 1.938-1.302 4.171-1.519 4.862l-1.035-0.324-0.752 2.406 1.676-0.522 1.232 1.431 0.75-2.406-1.119-0.351 1.644-5.266 2.009-0.385zm-2.084-0.539c-0.125 0.402-0.553 0.626-0.955 0.501-0.402-0.126-0.627-0.553-0.502-0.955 0.127-0.402 0.555-0.626 0.956-0.501s0.626 0.554 0.501 0.955zm-0.71-2.392c0.397-0.118 1.071-0.24 0.892 0.334-0.018 0.056-0.067 0.218-0.143 0.453l-0.749-0.787z"/>	</g></svg><svg width="32" viewBox="0 0 32 32" height="32" id="6" y="160"/><svg xmlns:xlink="http://www.w3.org/1999/xlink" id="7" style="enable-background:new 0 0 46.354 46.354" xml:space="preserve" height="32" viewBox="0 0 46.354 46.354" width="32" version="1.1" y="192" x="0px">	<path d="m21.57 2.049c0.303-0.612 0.927-1 1.609-1s1.307 0.388 1.609 1l5.771 11.695c0.261 0.529 0.767 0.896 1.352 0.981l12.906 1.875c0.677 0.098 1.237 0.572 1.448 1.221s0.035 1.363-0.454 1.839l-9.338 9.104c-0.423 0.412-0.616 1.006-0.517 1.588l2.204 12.855c0.114 0.674-0.161 1.354-0.715 1.756-0.553 0.4-1.284 0.453-1.89 0.137l-11.544-6.07c-0.522-0.275-1.147-0.275-1.67 0l-11.544 6.069c-0.604 0.317-1.337 0.265-1.89-0.136s-0.829-1.082-0.714-1.756l2.204-12.855c0.1-0.582-0.094-1.176-0.517-1.588l-9.338-9.104c-0.489-0.477-0.665-1.19-0.454-1.839s0.772-1.123 1.449-1.221l12.908-1.875c0.584-0.085 1.09-0.452 1.351-0.982l5.774-11.694z" fill="#fff"/></svg><svg width="32" viewBox="0 0 32 32" height="32" id="8" y="224"/><svg xmlns:xlink="http://www.w3.org/1999/xlink" id="9" style="enable-background:new 0 0 441.344 441.344" xml:space="preserve" height="32" viewBox="0 0 441.344 441.344" width="32" version="1.1" y="256" x="0px">	<path d="m314.02 17.679c-36.879 0-70.09 16.419-93.344 42.648-23.252-26.229-56.465-42.648-93.344-42.648-70.332 0-127.34 59.675-127.34 133.29 0 19.779 3.338 38.813 9.184 56.989 0 0 5.301 16.4 9.997 25.428 53.671 115.43 201.49 190.28 201.49 190.28s147.82-74.852 201.49-190.28 6.925-15.38 9.997-25.428c5.582-18.26 9.184-37.21 9.184-56.989 0-73.616-57-133.29-127.32-133.29z" fill="#fff"/></svg></svg>
